<svg xmlns="http://www.w3.org/2000/svg" viewBox="0 0 1422.71 858"><defs><style>.cls-1,.cls-2{fill:#fff;}.cls-1{opacity:0;}</style></defs><g id="Layer_2" data-name="Layer 2"><g id="Layer_1-2" data-name="Layer 1"><path class="cls-1" d="M1411.9,426.61c0,138.08-.27,276.16.41,414.24.07,14.29-2.91,17.16-17.27,17.15q-688.89-.72-1377.78,0C2.89,858,0,855.13,0,840.85Q.81,429,0,17.15C0,2.87,2.89,0,17.26,0Q706.15.72,1395,0c14.36,0,17.43,2.85,17.28,17.16-.86,82.2-.42,164.41-.42,246.62-12.07-26.5-21.41-54.7-36.82-79.11-26.93-42.64-50.95-47.84-97.54-30q-264,100.85-528.25,200.8C688.21,378.5,645,419.66,638.15,484.37c-6.21,58.83-6.37,119.73,1.86,178.18,6.83,48.5,25.86,96.55,46.61,141.54C709.62,854,740,863.42,791,842.18c52.3-21.76,103.06-47.18,154.44-71.12,26.42-12.32,43.91-32.78,58.32-57.94A1038.2,1038.2,0,0,1,1065.13,619c25.09-34.52,47.45-34.57,76.19-3.1,24.62,27,47.56,30.69,78.62,11.12,33.85-21.32,67.16-43.48,100.48-65.61,42.31-28.1,70.93-66.05,83.43-115.58C1405.53,439.14,1409.17,433,1411.9,426.61ZM569.7,626.09c0-48.55-.2-93,0-137.43.47-90.55,31.47-131.86,117.57-159.22C799.79,293.68,913,259.78,1024.13,220.32c70.57-25,138.07-58.69,206.81-88.79,4.56-2,8-6.61,11.9-10-4.85-3.27-9.48-7-14.65-9.64-2.66-1.39-6.26-1-9.44-1.38-58.68-7.57-117.26-16-176.1-22.07-14.72-1.51-33.17.53-44.91,8.35C945.28,131.68,889.34,158.68,828.2,173c-94,22-188.82,40.14-282.73,62.28-65.2,15.36-131,31.55-188.26,68C295,342.93,265.85,399.14,279,474c11.72,66.77,47.49,120.32,97.6,162.83C427.67,680.2,483.49,718,537.29,758.15c12.49,9.32,25.19,18.36,37.8,27.53l5.15-3.84c-3.27-7.28-5.72-15.07-10-21.75-26-41.09-52.58-81.82-78.49-123-3.43-5.45-4.16-12.58-6.13-18.94,7.2-1.47,14.68-5,21.54-4C526.89,616.91,546.31,621.47,569.7,626.09ZM26.33,170.43c4.84-2.39,8.45-4,11.87-5.91,125.27-70.33,260.75-86.8,400-65.65C526.23,112.26,612.52,137.35,699.4,158c34.41,8.19,67.93,9.73,101.12-4.15,39.06-16.32,78.21-32.46,117.08-49.23,5-2.17,8.61-7.66,12.86-11.61-4.94-3.21-9.46-7.79-14.88-9.43C796.81,47.55,676.08,21.12,552.15,9.82,427.83-1.52,306,13.67,185.16,41.35,137.63,52.24,89.93,61.07,50.56,93.7,20.31,118.78,15.43,128.77,26.33,170.43Zm-15.5,34.41C39,305.71,114.46,370.54,188.62,441.45c8.46-31.53,16.58-58.78,22.46-86.51,1-4.86-6-14.3-11.56-17.22C130.68,301.88,62.38,265.52,10.83,204.84Z"/><path class="cls-2" d="M1421,421a162.85,162.85,0,0,1-8,43,172.26,172.26,0,0,1-19,39c-5.82,9-20.56,29.88-70,67-61.82,46.41-93.17,54.52-104.06,57-17.27,3.91-27.56,6.09-39.94,2-23.77-7.82-28.62-30-56-36a54.79,54.79,0,0,0-23-.3c-19.92,4.39-31.81,20.5-38.91,30.4-30.15,42-42.62,67.84-58.37,90-18,25.28-35.85,39.76-58.32,57.94-29.92,24.2-83.35,66.35-154.44,71.12-37.54,2.52-56.49-7-65-12.18-17.33-10.61-26.57-25.07-33-36-39.39-66.94-53-131.45-53-131.45-3.24-15.39-11.4-87.9-1.86-178.18C645,419.66,688.21,378.5,749.29,355.43q264.35-99.85,528.25-200.8c24.27-9.27,42.42-12.3,58-7,18.11,6.09,28.38,21,39.49,37.09,9.74,14.12,23.83,38.7,30.92,74.33a457.41,457.41,0,0,1,15,162Zm-242.71,43.27c15-6.89,30.36-13,44.7-21,7-3.89,12-11.26,17.88-17.06-7.8.22-15.6.5-23.41.6-1.53,0-3.06-.63-5.79-1.23-3.76-17.27-7.53-35-11.53-52.76-3.23-14.32-7.07-28.33,14.14-32.77,2.84-.59,4.23-8.1,6.29-12.41-3-1.38-6.65-4.64-8.74-3.82-17.07,6.66-34.15,13.49-50.45,21.78-3.37,1.71-3.51,9.7-6.15,18l30.44-9.28c4.58,20.91,8.61,40.2,13.07,59.39,2.93,12.64,3.28,22.41-12.42,28.32-4.82,1.81-5.48,14.57-8,22.32-5.77-13-13.9-16.63-27.39-9.12-10.59,5.89-22.51,9.41-34.94,14.43-7.28-33.91-13.8-64.32-20.32-94.74l-9.14,2.14c7.56,37.35,15.13,74.69,22.89,113ZM865,550.55c9-13,19.18-21.22,19.71-30,.82-13.75-4-28.17-8.49-41.66-1.28-3.87-10.26-8.7-14.3-7.66C813,483.73,810,488.86,819.44,538c2.09,10.9,4.22,21.81,6.7,32.62,2.67,11.62,5.78,23.13,8.69,34.69,5.76-2.94,7.56-5.5,7.47-8-.54-14.83-1.52-29.63-2.35-44.45,12.92,8.88,25.66,18,38.89,26.44,3.81,2.43,9,2.66,13.62,3.9l3.3-6.5Zm230.79-54.14,5.52-.17c.38-5.54,1.89-11.28.93-16.58-3.12-17.17-7-34.19-10.83-51.22-12.17-54.32-13-54.75-63.31-26.12-4.09,2.33-8.66,9.58-7.92,13.63,5.94,32.82,13,65.44,20.09,98.06.42,2,3.59,3.33,10.33,9.21-3.45-21.11-12.1-39.18-6.62-50.47,5.29-10.88,25.18-14.74,40.23-22.5C1088.72,468.29,1092.25,482.35,1095.77,496.41ZM1357.2,265.53l-8.74-1.72c6.62,33.55,16.36,68.9-35.37,68.78-3.59-14.27-7.32-29.07-11-43.87l-7.55,1.63c3.94,21.48,7.87,43,12.1,66L1359.43,336c11.19,21.76,5.9,34.35-16.33,39.89-6.91,1.73-14.37,4.12-19.67,8.49-4.34,3.58-5.83,10.56-8.59,16A178.15,178.15,0,0,0,1368,382.92c4.83-2.46,10.55-10.77,9.75-15.35C1371.73,333.41,1364.23,299.51,1357.2,265.53ZM977.5,527.68c-7.19-32.92-13.94-63.81-20.68-94.71l-9,1.92L971.17,549.5c20.36-8.45,37.33-15.11,53.88-22.68,3.55-1.62,8.4-7.07,7.87-9.87-6.7-35.74-14.28-71.32-21.64-106.94l-8.57,1.52c3.55,19.46,6.66,39,10.73,58.36C1022.32,512.12,1022.51,512.08,977.5,527.68Zm-236.77,4.14,4.65,5,26.28-7.72c3.51,17.37,6.21,33.74,10.25,49.78,4.17,16.58,10.59,32.92-14.15,39.33-2.5.65-3.45,7.21-5.12,11,4.51,1,9.62,3.87,13.41,2.66,10.6-3.37,21.27-7.43,30.73-13.14,7.5-4.53,13.26-11.91,19.79-18-8.3.56-16.59,1.22-24.89,1.59-1.34.06-2.73-1.18-4.47-2-3.66-16.85-7.2-34-11.12-51-3.45-15-8.14-29.8,14.32-34.61,2.61-.56,3.68-8.24,5.46-12.62-4-.79-8.74-3.3-12-2.08a428.07,428.07,0,0,0-44.06,18.71C745.61,520.86,743.68,527.34,740.73,531.82Zm-8.32-6.93-7.1,96.32-10.64,1.7c-12.87-24-25.74-47.93-39.38-73.35-5.94,45.56,26.35,69.48,52.17,103.25C733.81,607.85,754.59,569.11,732.41,524.89Zm177.29-55.2c7.19,32.89,14,64.29,20.9,95.69l8.58-1.9c-5.2-26.67-9.6-53.53-15.95-79.92-3.09-12.84-2.68-20.63,11.57-25.71,5.33-1.89,8.26-10.46,12.28-16-58.34,13.34-65.72,18.38-62.51,37.06ZM1255.49,325c7.12,33.23,13.74,64.11,20.36,95l8.06-1.39c-1-7.94-1.6-16-3.16-23.8-3.71-18.64-7.65-37.24-12-55.75-2.81-12-2.32-21.06,11.77-26.3,5.31-2,8.43-9.81,12.55-15l-5.59-5.23c-18.18,7.66-36.58,14.88-54.36,23.39-3.21,1.54-3.86,8.36-5.69,12.75,4,.7,8.11,2.33,12,1.86C1243.93,330,1248.23,327.65,1255.49,325Z"/><path class="cls-2" d="M569.7,626.09c-23.39-4.62-42.81-9.18-62.49-11.93-6.86-1-14.34,2.56-21.54,4,2,6.36,2.7,13.49,6.13,18.94,25.91,41.14,52.49,81.87,78.49,123,4.23,6.68,6.68,14.47,10,21.75l-5.15,3.84c-12.61-9.17-25.31-18.21-37.8-27.53C483.49,718,427.67,680.2,376.6,636.87,326.49,594.36,290.72,540.81,279,474c-13.15-74.9,16-131.11,78.21-170.73,57.31-36.47,123.06-52.66,188.26-68C639.38,213.15,734.25,195,828.2,173c61.14-14.33,117.08-41.33,169.54-76.22,11.74-7.82,30.19-9.86,44.91-8.35,58.84,6,117.42,14.5,176.1,22.07,3.18.41,6.78,0,9.44,1.38,5.17,2.68,9.8,6.37,14.65,9.64-3.94,3.39-7.34,8-11.9,10-68.74,30.1-136.24,63.74-206.81,88.79C913,259.78,799.79,293.68,687.31,329.44c-86.1,27.36-117.1,68.67-117.57,159.22C569.5,533.1,569.7,577.54,569.7,626.09Z"/><path class="cls-2" d="M26.33,170.43c-10.9-41.66-6-51.65,24.23-76.73,39.37-32.63,87.07-41.46,134.6-52.35C306,13.67,427.83-1.52,552.15,9.82c123.93,11.3,244.66,37.73,363.43,73.79,5.42,1.64,9.94,6.22,14.88,9.43-4.25,3.95-7.83,9.44-12.86,11.61-38.87,16.77-78,32.91-117.08,49.23-33.19,13.88-66.71,12.34-101.12,4.15-86.88-20.68-173.17-45.77-261.22-59.16C299,77.72,163.47,94.19,38.2,164.52,34.78,166.44,31.17,168,26.33,170.43Z"/><path class="cls-2" d="M10.83,204.84c51.55,60.68,119.85,97,188.69,132.88,5.6,2.92,12.59,12.36,11.56,17.22-5.88,27.73-14,55-22.46,86.51C114.46,370.54,39,305.71,10.83,204.84Z"/><path class="cls-1" d="M865,550.55l30.78,26.16-3.3,6.5c-4.58-1.24-9.81-1.47-13.62-3.9-13.23-8.4-26-17.56-38.89-26.44.83,14.82,1.81,29.62,2.35,44.45.09,2.49-1.71,5-7.47,8-2.91-11.56-6-23.07-8.69-34.69-2.48-10.81-4.61-21.72-6.7-32.62C810,488.86,813,483.73,861.9,471.18c4-1,13,3.79,14.3,7.66,4.45,13.49,9.31,27.91,8.49,41.66C884.16,529.33,873.94,537.58,865,550.55Zm.73-60.82C820,501.67,820,501.67,831.55,535.8,876.77,523.78,879,520.83,865.71,489.73Z"/><path class="cls-1" d="M1095.77,496.41c-3.52-14.06-7-28.12-11.58-46.16-15,7.76-34.94,11.62-40.23,22.5-5.48,11.29,3.17,29.36,6.62,50.47-6.74-5.88-9.91-7.25-10.33-9.21-7.06-32.62-14.15-65.24-20.09-98.06-.74-4.05,3.83-11.3,7.92-13.63,50.34-28.63,51.14-28.2,63.31,26.12,3.82,17,7.71,34.05,10.83,51.22,1,5.3-.55,11-.93,16.58Zm-57.35-46.15c46.63-14.77,48.41-17.36,33.62-47.39C1028.61,417.1,1028.61,417.1,1038.42,450.26Z"/><path class="cls-1" d="M1357.2,265.53c7,34,14.53,67.88,20.5,102,.8,4.58-4.92,12.89-9.75,15.35a178.15,178.15,0,0,1-53.11,17.45c2.76-5.46,4.25-12.44,8.59-16,5.3-4.37,12.76-6.76,19.67-8.49,22.23-5.54,27.52-18.13,16.33-39.89l-52.84,20.43c-4.23-23.08-8.16-44.57-12.1-66l7.55-1.63c3.73,14.8,7.46,29.6,11,43.87,51.73.12,42-35.23,35.37-68.78Z"/><path class="cls-1" d="M977.5,527.68c45-15.6,44.82-15.56,35.94-57.79-4.07-19.35-7.18-38.9-10.73-58.36l8.57-1.52c7.36,35.62,14.94,71.2,21.64,106.94.53,2.8-4.32,8.25-7.87,9.87-16.55,7.57-33.52,14.23-53.88,22.68L947.79,434.89l9-1.92C963.56,463.87,970.31,494.76,977.5,527.68Z"/><path class="cls-1" d="M1178.28,464.33c2.56-7.75,3.22-20.51,8-22.32,15.7-5.91,15.35-15.68,12.42-28.32-4.46-19.19-8.49-38.48-13.07-59.39l-30.44,9.28c2.64-8.27,2.78-16.26,6.15-18,16.3-8.29,33.38-15.12,50.45-21.78,2.09-.82,5.79,2.44,8.74,3.82-2.06,4.31-3.45,11.82-6.29,12.41-21.21,4.44-17.37,18.45-14.14,32.77,4,17.72,7.77,35.49,11.53,52.76,2.73.6,4.26,1.25,5.79,1.23,7.81-.1,15.61-.38,23.41-.6-5.9,5.8-10.9,13.17-17.88,17.06-14.34,8-29.73,14.1-44.7,21Z"/><path class="cls-1" d="M740.73,531.82c2.95-4.48,4.88-11,9-13.06a428.07,428.07,0,0,1,44.06-18.71c3.3-1.22,8,1.29,12,2.08-1.78,4.38-2.85,12.06-5.46,12.62-22.46,4.81-17.77,19.66-14.32,34.61,3.92,17,7.46,34.11,11.12,51,1.74.81,3.13,2,4.47,2,8.3-.37,16.59-1,24.89-1.59-6.53,6.11-12.29,13.49-19.79,18-9.46,5.71-20.13,9.77-30.73,13.14-3.79,1.21-8.9-1.66-13.41-2.66,1.67-3.83,2.62-10.39,5.12-11,24.74-6.41,18.32-22.75,14.15-39.33-4-16-6.74-32.41-10.25-49.78l-26.28,7.72Z"/><path class="cls-1" d="M732.41,524.89c22.18,44.22,1.4,83-4.95,127.92-25.82-33.77-58.11-57.69-52.17-103.25C688.93,575,701.8,599,714.67,622.91l10.64-1.7Z"/><path class="cls-1" d="M909.7,469.69l-25.13,9.23c-3.21-18.68,4.17-23.72,62.51-37.06-4,5.53-7,14.1-12.28,16-14.25,5.08-14.66,12.87-11.57,25.71,6.35,26.39,10.75,53.25,15.95,79.92l-8.58,1.9C923.75,534,916.89,502.58,909.7,469.69Z"/><path class="cls-1" d="M1255.49,325c-7.26,2.62-11.56,5-16.08,5.55-3.85.47-8-1.16-12-1.86,1.83-4.39,2.48-11.21,5.69-12.75,17.78-8.51,36.18-15.73,54.36-23.39l5.59,5.23c-4.12,5.16-7.24,13-12.55,15-14.09,5.24-14.58,14.3-11.77,26.3,4.33,18.51,8.27,37.11,12,55.75,1.56,7.84,2.14,15.86,3.16,23.8l-8.06,1.39C1269.23,389.14,1262.61,358.26,1255.49,325Z"/><path class="cls-1" d="M1178.29,464.27l-68.91,25.81c-7.76-38.35-15.33-75.69-22.89-113l9.14-2.14c6.52,30.42,13,60.83,20.32,94.74,12.43-5,24.35-8.54,34.94-14.43,13.49-7.51,21.62-3.89,27.39,9.12Z"/><path class="cls-2" d="M865.71,489.73c13.24,31.1,11.06,34-34.16,46.07C820,501.67,820,501.67,865.71,489.73Z"/><path class="cls-2" d="M1038.42,450.26c-9.81-33.16-9.81-33.16,33.62-47.39C1086.83,432.9,1085.05,435.49,1038.42,450.26Z"/></g></g></svg>